<svg xmlns="http://www.w3.org/2000/svg" version="1.1" xmlns:xlink="http://www.w3.org/1999/xlink" xmlns:svgjs="http://svgjs.dev/svgjs" width="1000" height="623" viewBox="0 0 1000 623"><g transform="matrix(1,0,0,1,-0.6060606060606233,0.2522267206477409)"><svg viewBox="0 0 396 247" data-background-color="#f8f4f4" preserveAspectRatio="xMidYMid meet" height="623" width="1000" xmlns="http://www.w3.org/2000/svg" xmlns:xlink="http://www.w3.org/1999/xlink"><g id="tight-bounds" transform="matrix(1,0,0,1,0.2400000000000091,-0.09999999999999432)"><svg viewBox="0 0 395.52 247.2" height="247.2" width="395.52"><g><svg></svg></g><g><svg viewBox="0 0 395.52 247.2" height="247.2" width="395.52"><g transform="matrix(1,0,0,1,92.84009047013977,47.215199999999996)"><svg viewBox="0 0 209.83981905972044 152.7696" height="152.7696" width="209.83981905972044"><g><svg viewBox="0 0 209.83981905972044 152.7696" height="152.7696" width="209.83981905972044"><g><svg viewBox="0 0 209.83981905972044 152.7696" height="152.7696" width="209.83981905972044"><g><svg viewBox="0 0 209.83981905972044 152.7696" height="152.7696" width="209.83981905972044"><g><svg viewBox="0 0 209.83981905972044 152.7696" height="152.7696" width="209.83981905972044" id="textblock"><g><svg viewBox="0 0 209.83981905972044 152.7696" height="152.7696" width="209.83981905972044"><g transform="matrix(1,0,0,1,0,0)"><svg width="209.83981905972044" viewBox="-0.49000000953674316 -37.2599983215332 52.78000259399414 38.43000030517578" height="152.7696" data-palette-color="#734dd8"><path d="M4.98-0.63L4.64-0.78Q4.49-0.68 4.35-0.59 4.2-0.49 4.05-0.39L4.05-0.39Q3.52-0.1 3.08-0.07 2.64-0.05 2.1 0.44L2.1 0.44Q1.9 0.2 1.81 0.2 1.71 0.2 1.46 0.2L1.46 0.2Q0.83 0.2 0.73-0.15L0.73-0.15Q0.54-0.1 0.12 0.1-0.29 0.29-0.49 0.39L-0.49 0.39Q-0.05-0.24 0.1-0.59 0.24-0.93 0.27-1.22 0.29-1.51 0.32-1.83 0.34-2.15 0.54-2.73L0.54-2.73Q0.63-2.93 0.68-3.13 0.73-3.32 0.83-3.56L0.83-3.56Q1.07-4.3 1.25-5.22 1.42-6.15 1.81-6.84L1.81-6.84Q1.81-7.67 2.17-8.4 2.54-9.13 2.78-9.91L2.78-9.91Q2.88-10.21 3.05-10.5 3.22-10.79 3.32-11.08L3.32-11.08Q3.52-11.57 3.64-12.04 3.76-12.5 3.91-12.94L3.91-12.94Q4.3-14.36 4.69-15.75 5.08-17.14 5.42-18.55L5.42-18.55Q5.47-18.8 5.54-19.09 5.62-19.38 5.71-19.63L5.71-19.63Q5.96-20.36 6.03-21.12 6.1-21.88 6.49-22.56L6.49-22.56Q6.45-22.9 6.52-23.19 6.59-23.49 6.69-23.83 6.79-24.17 6.88-24.46 6.98-24.76 7.03-24.9L7.03-24.9Q7.28-25.54 7.4-26.05 7.52-26.56 7.91-27.15L7.91-27.15Q7.91-27.15 8.06-27.66 8.2-28.17 8.4-28.81 8.59-29.44 8.74-30 8.89-30.57 8.89-30.66L8.89-30.66Q8.98-31.05 9.06-31.4 9.13-31.74 9.23-32.13L9.23-32.13Q9.33-32.37 9.42-32.54 9.52-32.71 9.62-32.96L9.62-32.96Q9.77-33.5 9.91-34.28 10.06-35.06 10.3-35.5L10.3-35.5Q10.45-35.84 10.86-36.06 11.28-36.28 11.57-36.52L11.57-36.52Q12.45-36.43 12.87-36.62 13.28-36.82 13.67-37.11L13.67-37.11Q13.92-37.06 14.14-36.99 14.36-36.91 14.6-36.91L14.6-36.91Q15.53-35.89 15.89-34.81 16.26-33.74 16.6-32.67L16.6-32.67Q16.75-32.13 16.89-31.62 17.04-31.1 17.24-30.62L17.24-30.62Q17.29-30.47 17.38-30.3 17.48-30.13 17.58-29.93L17.58-29.93Q17.82-29.54 17.99-29.1 18.16-28.66 18.31-28.22L18.31-28.22Q18.6-27.88 18.75-27.42 18.9-26.95 19.02-26.49 19.14-26.03 19.29-25.61 19.43-25.2 19.73-24.9L19.73-24.9Q19.82-24.37 20.07-23.85 20.31-23.34 20.41-22.75L20.41-22.75Q20.7-22.36 21.09-21.26 21.48-20.17 21.88-18.9 22.27-17.63 22.61-16.46 22.95-15.28 23.1-14.79L23.1-14.79Q23.19-14.4 23.49-13.79 23.78-13.18 24.02-12.7L24.02-12.7Q24.22-12.16 24.44-11.57 24.66-10.99 24.8-10.45L24.8-10.45Q24.9-9.91 25.02-9.42 25.15-8.94 25.29-8.4L25.29-8.4Q25.39-8.06 25.59-7.79 25.78-7.52 25.88-7.13L25.88-7.13Q26.07-6.74 26.15-6.4 26.22-6.05 26.46-5.66L26.46-5.66Q26.42-5.13 26.51-4.98 26.61-4.83 26.71-4.64L26.71-4.64Q26.9-3.61 27.15-3 27.39-2.39 27.39-1.71L27.39-1.71Q27.39-1.12 27.17-0.98 26.95-0.83 26.61-0.49L26.61-0.49Q26.22-0.15 25.95 0.05 25.68 0.24 25.15 0.24L25.15 0.24Q24.56 0.2 24.44 0.42 24.32 0.63 24.27 0.73L24.27 0.73Q23.68 0.68 23.51 0.71 23.34 0.73 23.17 0.73 23 0.73 22.83 0.81 22.66 0.88 22.46 1.12L22.46 1.12Q22.12 0.73 21.8 0.42 21.48 0.1 21.24-0.29L21.24-0.29Q21.24-1.12 21.02-2.25 20.8-3.37 20.56-4L20.56-4Q20.07-5.27 19.65-6.49 19.24-7.71 18.85-8.98L18.85-8.98Q18.7-9.52 18.53-9.96 18.36-10.4 18.16-10.89L18.16-10.89Q18.26-10.5 18.24-10.08 18.21-9.67 17.97-9.28L17.97-9.28Q17.87-9.18 17.68-9.03 17.48-8.89 17.48-8.79L17.48-8.79Q16.89-8.3 16.46-7.86L16.46-7.86Q16.5-6.98 16.21-6.64 15.92-6.3 15.58-6.01L15.58-6.01Q14.75-5.96 14.55-6.1 14.36-6.25 14.01-6.3L14.01-6.3Q13.82-6.35 13.62-6.32 13.43-6.3 13.23-6.3L13.23-6.3Q12.84-6.3 12.5-6.49L12.5-6.49Q12.35-6.59 12.28-6.69 12.21-6.79 12.11-6.88L12.11-6.88Q11.72-7.28 11.21-7.54 10.69-7.81 10.21-8.01L10.21-8.01Q9.81-8.35 9.4-8.72 8.98-9.08 8.54-9.33L8.54-9.33Q8.15-8.4 7.93-7.69 7.71-6.98 7.42-6.3L7.42-6.3Q6.88-4.64 6.54-3.39 6.2-2.15 5.76-0.88L5.76-0.88Q5.57-0.83 5.4-0.73 5.22-0.63 4.98-0.63L4.98-0.63ZM9.23-11.18L9.42-11.18Q9.81-11.87 10.13-11.94 10.45-12.01 10.69-12.3L10.69-12.3Q10.79-12.4 10.91-12.55 11.04-12.7 11.18-12.84L11.18-12.84Q11.33-12.94 11.52-13.04 11.72-13.13 11.87-13.28L11.87-13.28Q12.26-13.62 12.52-13.87 12.79-14.11 13.33-14.11L13.33-14.11Q14.16-14.11 14.7-13.7 15.23-13.28 16.02-13.13L16.02-13.13Q16.11-12.84 16.65-12.72 17.19-12.6 17.48-12.4L17.48-12.4Q16.99-13.62 16.72-14.87 16.46-16.11 16.06-17.33L16.06-17.33Q15.77-18.41 15.38-19.46 14.99-20.51 14.6-21.48L14.6-21.48Q14.26-22.46 14.01-23.39 13.77-24.32 13.38-25.2L13.38-25.2Q12.99-24.32 12.6-23.05 12.21-21.78 12.01-20.8L12.01-20.8Q12.01-20.36 11.96-20.12L11.96-20.12Q11.87-19.78 11.77-19.51 11.67-19.24 11.57-18.95L11.57-18.95Q10.94-17.04 10.42-15.09 9.91-13.13 9.23-11.18L9.23-11.18ZM30.32 0.59L30.32 0.59Q30.12 0.39 30.12 0.05L30.12 0.05Q30.12-0.2 30.15-0.37 30.17-0.54 30.22-0.78L30.22-0.78Q30.47-1.9 30.47-3.05 30.47-4.2 30.56-5.32L30.56-5.32Q30.61-6.01 30.64-6.69 30.66-7.37 30.66-8.06L30.66-8.06Q30.66-12.11 30.42-16.14 30.17-20.17 30.17-24.27L30.17-24.27Q30.17-27.1 30.27-29.96 30.37-32.81 30.42-35.69L30.42-35.69Q30.86-35.94 31.49-35.89 32.13-35.84 32.52-36.33L32.52-36.33Q32.76-36.38 33.01-36.35 33.25-36.33 33.49-36.33L33.49-36.33Q34.03-36.33 34.52-36.67 35.01-37.01 35.59-37.26L35.59-37.26Q35.89-37.16 36.01-37.18 36.13-37.21 36.28-37.21L36.28-37.21Q36.42-37.21 36.91-36.87 37.4-36.52 37.99-36.08 38.57-35.64 39.08-35.25 39.6-34.86 39.74-34.77L39.74-34.77Q40.96-33.84 41.92-32.74 42.87-31.64 43.8-30.52L43.8-30.52Q44.68-29.39 45.7-28.25 46.73-27.1 47.7-26.12L47.7-26.12Q48.04-25.73 48.41-25.44 48.78-25.15 49.12-24.76L49.12-24.76Q49.27-24.56 49.39-24.34 49.51-24.12 49.66-23.88L49.66-23.88Q49.95-23.54 50.34-23.29 50.73-23.05 51.07-22.71L51.07-22.71Q51.32-22.51 51.8-21.92 52.29-21.34 52.29-21.04L52.29-21.04Q52.29-20.85 52.19-20.7 52.1-20.56 52-20.36L52-20.36Q51.95-20.21 51.95-19.92 51.95-19.63 51.9-19.53L51.9-19.53Q51.41-19.14 51.36-19.04 51.32-18.95 51.22-18.85L51.22-18.85Q51.07-18.65 50.85-18.53 50.63-18.41 50.53-18.16L50.53-18.16Q50.44-18.02 50.46-17.87 50.49-17.72 50.39-17.53L50.39-17.53Q50.14-16.99 49.61-16.5 49.07-16.02 48.68-15.43L48.68-15.43Q48.14-14.55 47.6-13.67 47.07-12.79 46.38-11.96L46.38-11.96Q46.09-11.57 45.77-11.21 45.46-10.84 45.16-10.45L45.16-10.45Q44.92-10.16 44.72-9.84 44.53-9.52 44.28-9.13L44.28-9.13Q43.75-8.45 43.26-7.79 42.77-7.13 42.23-6.45L42.23-6.45Q41.65-5.62 40.96-4.81 40.28-4 39.74-3.17L39.74-3.17Q39.21-2.29 38.62-1.56 38.03-0.83 37.35-0.15L37.35-0.15Q37.16 0 36.86 0.29 36.57 0.59 36.28 0.59L36.28 0.59Q36.08 0.59 35.96 0.44 35.84 0.29 35.59 0.29L35.59 0.29Q35.54 0.29 35.3 0.34 35.06 0.39 34.71 0.44L34.71 0.44 33.84 0.54Q33.05 0.93 32.71 0.9 32.37 0.88 32.03 0.93L32.03 0.93Q31.83 0.98 31.71 1.07 31.59 1.17 31.44 1.17L31.44 1.17Q31.1 1.17 30.91 0.85 30.71 0.54 30.32 0.59ZM44.97-20.51L44.97-20.51Q44.97-20.75 44.5-21.19 44.04-21.63 43.8-21.83L43.8-21.83Q43.45-22.12 42.99-22.39 42.53-22.66 42.23-23L42.23-23Q41.99-23.29 41.77-23.61 41.55-23.93 41.31-24.22L41.31-24.22Q40.43-25.2 39.52-26.17 38.62-27.15 37.94-28.32L37.94-28.32Q37.5-28.61 37.11-29 36.72-29.39 36.18-29.64L36.18-29.64Q36.08-29.35 36.11-29.03 36.13-28.71 36.13-28.42L36.13-28.42Q36.13-27.29 36.03-26.22 35.94-25.15 35.94-24.07L35.94-24.07Q35.94-21.44 36.06-18.87 36.18-16.31 36.18-13.72L36.18-13.72Q36.18-12.74 36.2-11.77 36.23-10.79 36.37-9.81L36.37-9.81Q36.28-9.52 36.28-9.28L36.28-9.28Q36.28-9.03 36.37-8.64L36.37-8.64Q36.77-8.89 37.03-9.25 37.3-9.62 37.55-9.96L37.55-9.96Q38.38-11.04 39.18-12.13 39.99-13.23 40.82-14.36L40.82-14.36Q41.35-15.09 41.92-15.8 42.48-16.5 43.02-17.29L43.02-17.29Q43.16-17.48 43.48-17.97 43.8-18.46 44.11-18.97 44.43-19.48 44.7-19.92 44.97-20.36 44.97-20.51Z" opacity="1" transform="matrix(1,0,0,1,0,0)" fill="#734dd8" class="undefined-text-0" data-fill-palette-color="primary" id="text-0"></path></svg></g></svg></g></svg></g></svg></g></svg></g></svg></g></svg></g><g><path d="M228.52 0c68.262 0 123.6 55.338 123.6 123.6 0 68.262-55.338 123.6-123.6 123.6-30.402 0-58.24-10.976-79.768-29.183l11.147 0c19.26 14.022 42.974 22.294 68.621 22.295 64.458 0 116.712-52.254 116.711-116.712 0-64.458-52.254-116.712-116.711-116.712-25.647 0-49.361 8.272-68.621 22.295l-11.147 0c21.528-18.206 49.366-29.183 79.768-29.183z" fill="#734dd8" stroke="transparent" data-fill-palette-color="tertiary"></path></g></svg></g><defs></defs></svg><rect width="395.52" height="247.2" fill="none" stroke="none" visibility="hidden"></rect></g></svg></g></svg>